<?xml version="1.0" standalone="no"?>
<!DOCTYPE svg PUBLIC "-//W3C//DTD SVG 20010904//EN"
 "http://www.w3.org/TR/2001/REC-SVG-20010904/DTD/svg10.dtd">
<svg version="1.0" xmlns="http://www.w3.org/2000/svg"
 width="333.000000pt" height="333.000000pt" viewBox="0 0 333.000000 333.000000"
 preserveAspectRatio="xMidYMid meet">
<metadata>
Created by potrace 1.11, written by Peter Selinger 2001-2013
</metadata>
<g transform="translate(0.000000,333.000000) scale(0.100000,-0.100000)"
fill="#000000" stroke="none">
<path d="M530 2490 l0 -680 180 0 180 0 0 218 0 219 168 6 c98 4 191 13 225
22 187 49 320 180 362 356 49 209 -33 397 -208 480 -114 53 -167 59 -554 59
l-353 0 0 -680z m655 402 c54 -24 93 -70 104 -124 11 -55 -5 -135 -35 -175
-43 -56 -97 -74 -240 -81 l-124 -5 0 208 0 207 123 -4 c97 -4 132 -9 172 -26z"/>
<path d="M1890 2490 l0 -680 495 0 495 0 0 130 0 130 -315 0 -315 0 0 550 0
550 -180 0 -180 0 0 -680z"/>
<path d="M1008 1540 c-255 -46 -430 -184 -512 -401 -35 -94 -48 -178 -48 -310
1 -224 59 -379 191 -509 135 -133 272 -182 511 -182 161 0 232 14 383 75 l82
33 3 167 c2 158 2 167 -17 167 -10 0 -25 -8 -32 -17 -32 -39 -189 -131 -253
-148 -165 -45 -343 9 -425 129 -60 88 -75 148 -75 296 0 112 4 145 22 192 53
144 149 224 297 248 120 19 230 -15 370 -116 117 -83 115 -85 115 110 l0 163
-71 32 c-109 49 -216 71 -364 76 -71 2 -151 0 -177 -5z"/>
<path d="M2313 1540 c-161 -18 -308 -84 -397 -180 -75 -80 -91 -125 -91 -250
1 -94 3 -111 28 -161 66 -136 194 -208 482 -269 177 -38 217 -52 250 -92 31
-37 34 -94 5 -131 -36 -45 -100 -62 -240 -62 -175 0 -293 35 -441 132 -103 67
-100 71 -97 -124 l3 -166 85 -29 c147 -50 262 -68 423 -68 217 0 340 31 469
116 121 81 180 191 179 335 0 102 -24 170 -82 233 -81 89 -174 129 -448 191
-173 39 -232 63 -249 101 -40 87 31 156 180 175 141 18 329 -28 458 -112 33
-21 67 -39 75 -39 13 0 15 26 15 160 l0 159 -81 26 c-150 47 -382 72 -526 55z"/>
</g>
</svg>
